<?xml version="1.0" standalone="no"?>
<!DOCTYPE svg PUBLIC "-//W3C//DTD SVG 20010904//EN"
 "http://www.w3.org/TR/2001/REC-SVG-20010904/DTD/svg10.dtd">
<svg version="1.0" xmlns="http://www.w3.org/2000/svg"
 width="512.000000pt" height="512.000000pt" viewBox="0 0 512.000000 512.000000"
 preserveAspectRatio="xMidYMid meet">
<metadata>
Created by potrace 1.14, written by Peter Selinger 2001-2017
</metadata>
<g transform="translate(0.000000,512.000000) scale(0.100000,-0.100000)"
fill="#000000" stroke="none">
<path d="M2840 4758 c0 -5 -5 -6 -10 -3 -13 8 -80 -57 -81 -79 -1 -9 -1 -25
-1 -36 0 -48 3 -60 28 -89 14 -17 34 -31 45 -31 17 0 19 -8 19 -85 l0 -86 -90
-88 -90 -89 0 -158 0 -158 -45 44 -45 44 0 234 c0 230 0 234 21 239 26 7 59
77 50 107 -29 99 -146 116 -190 27 -13 -26 -16 -44 -10 -65 9 -33 46 -76 66
-76 10 0 13 -25 13 -107 l0 -107 -90 89 -90 90 -1 70 c-2 127 0 145 16 145 24
0 48 45 40 79 -8 38 -33 58 -70 56 -44 -2 -62 -13 -73 -45 -11 -30 6 -78 33
-93 9 -5 13 -28 14 -75 0 -161 -11 -136 111 -257 l110 -110 0 -109 0 -108 70
-72 70 -73 0 -81 0 -81 -76 -77 c-44 -45 -73 -82 -70 -90 8 -20 0 -17 -29 11
-23 24 -25 32 -25 125 0 92 2 101 25 124 14 14 25 34 25 45 0 30 -31 61 -61
61 -55 0 -80 -72 -36 -107 21 -16 23 -27 25 -105 0 -49 -1 -88 -2 -88 -2 0
-29 25 -60 56 l-56 56 0 178 c0 172 1 179 21 185 30 10 50 62 36 94 -20 47
-38 61 -78 61 -85 0 -118 -83 -57 -143 31 -31 31 -34 32 -129 1 -54 -1 -98 -3
-98 -3 0 -38 33 -78 72 l-73 72 0 131 0 131 33 31 c21 20 40 29 55 27 28 -5
62 28 62 60 0 56 -75 78 -106 31 -9 -15 -14 -34 -10 -47 4 -17 -3 -31 -26 -55
l-32 -33 0 -125 c1 -90 -2 -123 -10 -115 -7 7 -11 102 -12 281 l0 271 23 15
c45 30 24 103 -31 103 -60 0 -86 -63 -40 -99 l24 -19 0 -223 0 -222 -24 22
c-20 19 -24 32 -22 65 2 39 -1 45 -81 127 -64 66 -83 92 -83 114 0 51 -62 73
-100 35 -12 -12 -18 -29 -16 -42 3 -13 5 -26 5 -29 2 -13 54 -29 73 -23 16 5
37 -11 99 -72 76 -75 79 -80 79 -124 0 -39 5 -51 35 -80 27 -26 35 -42 35 -69
0 -32 12 -47 111 -147 l111 -111 2 -64 1 -64 85 -86 c47 -47 101 -104 120
-125 l35 -39 -2 -320 c0 -176 -2 -324 -2 -330 -1 -5 -21 11 -46 35 l-44 43 0
168 c-1 151 1 172 19 201 51 84 1 184 -96 193 -73 7 -137 -51 -137 -125 0 -57
41 -107 98 -121 l45 -11 0 -92 0 -91 -104 104 -103 103 0 113 c1 114 1 114 27
125 30 12 60 58 60 90 0 34 -37 87 -66 94 -16 4 -25 13 -23 24 1 9 1 24 0 34
0 9 -59 75 -131 147 -74 74 -130 139 -130 149 0 10 9 27 20 37 41 37 14 105
-41 105 -55 0 -78 -74 -34 -108 14 -11 25 -30 25 -41 0 -15 44 -66 130 -152
107 -107 130 -135 130 -159 0 -20 -6 -31 -20 -35 -11 -3 -27 -13 -36 -22 -14
-14 -20 -11 -67 33 -38 36 -59 49 -79 48 -26 -1 -27 1 -22 38 8 50 -11 95 -47
114 -31 16 -33 14 -32 -41 1 -46 4 -56 13 -50 6 3 7 -1 4 -9 -6 -15 6 -21 29
-17 5 1 6 -3 2 -9 -3 -5 -1 -10 4 -10 6 0 11 -4 11 -9 0 -25 -57 1 -106 50
l-54 53 0 101 0 101 -54 53 c-41 41 -53 58 -47 70 30 56 -27 141 -94 141 -67
0 -118 -75 -94 -137 11 -29 45 -62 66 -64 7 -1 19 -2 26 -3 6 -1 19 1 28 5 12
6 30 -6 67 -41 l52 -50 1 -99 1 -99 69 -68 68 -68 58 2 c57 1 58 0 112 -54 30
-30 56 -62 57 -70 3 -22 33 -64 50 -71 11 -4 14 -31 14 -132 l0 -126 130 -130
c123 -123 130 -132 130 -170 0 -36 7 -47 82 -122 l82 -83 1 -851 0 -851 58
-58 c47 -48 57 -64 57 -93 0 -18 -3 -37 -7 -41 -4 -4 -8 -74 -8 -156 l-1 -148
38 -4 c20 -2 42 -2 47 0 13 4 14 249 2 355 -7 64 -9 70 -62 123 l-54 55 0 726
0 726 77 77 78 77 0 82 c0 77 1 82 24 91 38 14 57 50 52 98 l-4 42 134 135
c74 74 134 139 134 145 0 6 18 28 40 49 29 27 40 46 40 67 0 37 -32 90 -59 99
-20 6 -21 13 -21 168 l0 161 125 126 125 127 0 52 c0 47 2 52 19 46 33 -10 65
5 90 41 13 19 22 36 20 38 -2 2 -18 6 -35 9 -31 5 -88 -21 -84 -38 1 -3 -1 -9
-4 -12 -3 -4 -6 8 -6 26 0 21 9 42 28 62 27 29 28 30 65 14 56 -23 105 -7 132
45 38 74 -11 148 -98 148 -28 -1 -86 -47 -88 -71 -3 -47 -10 -63 -47 -100
l-42 -43 0 -99 0 -100 -126 -125 c-100 -100 -124 -130 -121 -147 5 -29 -4 -29
-31 0 -14 15 -22 36 -22 58 0 30 12 46 98 131 l97 98 -1 90 -2 90 26 0 c52 0
78 39 56 82 -8 15 -19 29 -24 29 -55 7 -66 3 -88 -36 -10 -18 -11 -16 -9 15 2
21 12 45 26 59 17 17 21 29 16 49 -8 34 -15 41 -45 47 -59 11 -92 -55 -50
-100 18 -19 21 -36 21 -136 1 -63 1 -121 0 -129 -1 -19 -211 -235 -211 -218 0
6 45 58 100 113 l100 102 0 66 c0 60 -3 70 -32 103 -20 22 -32 46 -30 59 6 47
-66 75 -102 39 -37 -37 -8 -96 47 -96 56 0 86 -39 84 -108 -2 -55 -2 -55 -84
-137 -46 -46 -84 -83 -86 -83 -14 0 5 54 23 68 30 24 30 70 0 94 -30 24 -46
23 -74 -5 -28 -28 -25 -70 7 -92 19 -13 20 -24 19 -133 l-1 -118 85 -86 86
-86 2 -68 c1 -54 -3 -73 -16 -86 -10 -10 -22 -18 -27 -18 -15 0 -39 -62 -34
-89 6 -36 29 -68 53 -76 27 -9 26 -15 -17 -62 l-38 -42 -10 42 c-6 24 -16 41
-23 39 -7 -1 -11 3 -10 9 2 7 -12 18 -31 26 l-33 14 4 -33 c9 -63 29 -91 73
-100 16 -3 4 -19 -69 -91 -63 -62 -92 -85 -99 -78 -21 21 -72 12 -107 -18 -28
-23 -34 -35 -34 -68 0 -42 27 -88 57 -98 14 -5 17 -19 17 -76 l0 -70 -51 -50
c-28 -27 -51 -49 -52 -49 -2 0 -2 97 -2 216 l0 215 90 89 90 88 -1 105 c-1 94
1 106 17 110 40 11 31 99 -11 110 -22 6 -59 -12 -73 -34 -14 -23 0 -70 23 -76
18 -5 20 -14 20 -102 l0 -96 -78 -78 c-85 -85 -112 -81 -30 4 46 47 48 52 48
105 0 45 4 59 22 73 44 36 20 104 -38 104 -31 0 -54 -26 -54 -59 0 -31 10 -55
21 -49 13 9 25 -27 24 -71 -1 -30 -9 -48 -32 -72 -16 -18 -32 -32 -34 -32 -2
0 -4 99 -4 219 l0 220 73 75 72 75 0 273 0 273 90 90 90 90 0 100 c0 93 2 101
22 110 35 16 62 62 64 108 2 50 -18 88 -58 112 -33 19 -98 28 -98 13z m-480
-74 c19 -22 1 -68 -29 -72 -46 -7 -77 56 -39 80 21 13 55 9 68 -8z m560 -18
c13 -35 6 -59 -23 -76 -38 -21 -77 1 -77 45 0 40 16 55 57 55 26 0 36 -5 43
-24z m-836 -72 c18 -18 6 -54 -19 -54 -22 0 -39 38 -24 56 15 18 24 18 43 -2z
m497 -60 c16 -31 4 -70 -23 -77 -60 -16 -96 75 -38 95 28 10 49 4 61 -18z
m-767 -130 c8 -21 -11 -44 -34 -44 -21 0 -29 16 -22 43 6 22 48 23 56 1z
m1320 -60 c20 -8 21 -38 2 -53 -19 -16 -46 -3 -46 23 0 34 12 42 44 30z m-910
-10 c21 -8 21 -50 0 -58 -32 -12 -57 27 -32 52 14 14 12 14 32 6z m1281 -54
c34 -37 -5 -96 -56 -83 -9 3 -22 15 -29 28 -10 19 -9 27 5 49 21 31 55 34 80
6z m-517 -22 c18 -18 15 -36 -7 -48 -15 -7 -23 -6 -35 6 -12 12 -13 20 -6 35
12 22 30 25 48 7z m232 -48 c13 -7 17 -16 13 -28 -9 -25 -24 -32 -45 -21 -21
11 -23 30 -6 47 15 15 15 15 38 2z m-70 -137 l0 -108 -96 -96 c-93 -94 -97
-99 -99 -145 -2 -45 1 -53 36 -89 34 -36 62 -101 39 -93 -5 2 -38 32 -75 67
-99 96 -98 101 57 254 l123 122 0 98 c0 53 3 97 7 97 5 0 8 -48 8 -107z
m-1594 22 c19 -29 12 -59 -19 -72 -27 -13 -64 2 -73 29 -8 28 22 68 51 68 15
0 31 -10 41 -25z m774 -29 c0 -28 -24 -40 -51 -26 -24 13 -25 46 -2 59 25 13
53 -4 53 -33z m-451 -119 c-15 -12 -25 -15 -27 -8 -2 6 -7 9 -12 6 -4 -3 -10
4 -13 15 -3 13 2 25 16 35 20 14 23 14 40 -7 18 -22 18 -23 -4 -41z m1025 30
c9 -14 7 -21 -7 -32 -25 -18 -47 -9 -47 19 0 40 32 48 54 13z m-426 -220 c-4
-26 -39 -35 -56 -14 -9 10 -8 19 4 35 12 18 19 20 35 11 13 -6 19 -18 17 -32z
m-312 -284 c18 -24 17 -48 -2 -67 -24 -24 -61 -20 -80 9 -15 23 -15 27 0 50
20 30 62 34 82 8z m611 -136 c18 -13 -2 -47 -28 -47 -27 0 -42 41 -20 57 15
11 24 9 48 -10z m327 -80 c20 -55 -57 -92 -89 -43 -13 19 -14 29 -6 45 25 46
78 45 95 -2z m-731 1 c23 -23 21 -53 -5 -78 -26 -24 -37 -25 -65 -5 -30 21
-34 51 -12 79 22 28 57 30 82 4z m327 -31 c0 -7 -5 -18 -12 -25 -18 -18 -36
-15 -48 7 -14 28 13 55 41 41 10 -6 19 -16 19 -23z m204 -125 c3 -5 -1 -9 -9
-9 -8 0 -12 4 -9 9 3 4 7 8 9 8 2 0 6 -4 9 -8z m-152 -279 c25 -23 23 -60 -4
-75 -32 -18 -40 -17 -66 6 -22 19 -22 45 -1 71 13 17 52 16 71 -2z"/>
<path d="M2701 4494 c-22 -48 -24 -85 -5 -126 15 -34 25 -42 46 -39 4 0 5 -6
2 -14 -4 -9 0 -15 9 -15 24 0 41 54 38 118 0 12 -18 41 -39 63 l-38 41 -13
-28z m49 -134 c0 -5 -2 -10 -4 -10 -3 0 -8 5 -11 10 -3 6 -1 10 4 10 6 0 11
-4 11 -10z"/>
<path d="M1828 4212 c-10 -2 -18 -10 -18 -17 0 -14 54 -69 70 -71 6 -1 11 -3
13 -4 8 -8 57 -7 57 1 0 6 5 7 10 4 22 -14 8 14 -25 50 -31 32 -38 35 -52 23
-9 -7 -14 -8 -10 -2 8 13 -18 22 -45 16z"/>
<path d="M3477 4032 c-10 -10 -17 -26 -17 -36 0 -10 -40 -58 -90 -108 l-90
-91 0 -86 -1 -86 -38 -18 c-40 -18 -51 -37 -51 -95 0 -36 45 -92 74 -92 14 0
16 -25 16 -209 l0 -209 -165 -166 -165 -167 0 -57 c0 -55 -2 -60 -42 -97 -23
-22 -35 -31 -27 -20 9 11 19 30 22 43 6 26 -10 82 -24 82 -5 0 -9 8 -9 18 -1
13 -6 11 -24 -12 -29 -35 -31 -111 -3 -131 9 -7 17 -16 17 -21 0 -5 -39 -49
-88 -97 l-87 -87 1 -662 c1 -365 2 -666 3 -670 0 -4 37 -43 82 -87 83 -81 108
-128 87 -165 -8 -15 -14 -304 -6 -311 3 -3 57 -8 73 -6 14 1 9 315 -5 319 -5
2 -10 25 -10 50 0 46 -2 49 -90 136 l-90 90 0 641 0 641 53 52 53 52 114 0
113 0 90 90 c76 77 94 90 122 90 53 0 79 51 46 91 -39 48 -105 21 -103 -42 1
-27 -12 -45 -81 -115 l-82 -84 -95 2 -95 2 90 3 90 4 53 52 c44 44 52 57 52
89 0 20 4 48 9 62 15 37 -20 78 -63 74 -74 -7 -64 -117 12 -118 35 0 27 -26
-28 -84 l-50 -53 -67 -1 -66 -1 53 54 c52 52 53 55 52 111 l0 57 90 88 c81 80
94 89 128 89 33 0 45 7 86 50 39 41 54 50 83 50 19 0 43 -8 53 -17 22 -20 71
-21 92 -3 20 16 21 67 2 86 -28 27 -101 7 -101 -28 0 -9 -17 -14 -54 -16 -49
-3 -58 -7 -97 -48 -24 -24 -50 -44 -59 -44 -14 0 89 109 104 111 3 0 25 1 48
3 33 1 50 9 78 36 41 39 61 45 68 20 7 -28 67 -42 88 -21 31 30 32 58 5 85
-28 29 -62 28 -86 -2 -9 -10 -21 -17 -28 -14 -7 2 -32 -14 -55 -35 -33 -30
-50 -39 -76 -38 -52 1 -52 25 0 25 37 0 47 6 91 50 48 49 51 50 107 50 40 0
63 -5 71 -15 12 -14 47 -14 71 0 35 22 24 91 -17 101 -38 10 -58 0 -74 -32
-14 -30 -18 -32 -73 -33 -55 -1 -59 -2 -106 -51 -38 -39 -55 -50 -80 -50 -52
0 -39 31 51 119 75 75 85 81 123 81 36 0 47 6 89 49 46 47 51 49 91 44 78 -9
127 64 82 123 -25 33 -38 38 -82 30 -37 -7 -70 -56 -61 -90 8 -31 -81 -116
-121 -116 l-28 0 1 170 2 170 61 62 c57 58 62 61 86 50 42 -19 74 -14 106 17
53 53 35 138 -35 161 -65 21 -118 -17 -122 -88 -2 -41 -9 -51 -70 -113 l-66
-67 1 -184 1 -184 -48 -47 -48 -48 1 96 c1 89 3 96 28 123 25 26 27 35 27 108
0 78 -1 81 -35 114 -20 19 -35 44 -35 57 0 13 1 23 3 23 1 1 20 3 42 6 63 9
74 19 70 60 -4 45 -14 55 -54 56 -40 1 -54 -12 -55 -55 -1 -19 -9 -42 -19 -51
-27 -27 -20 -62 20 -107 34 -38 37 -46 38 -102 1 -53 -3 -65 -27 -93 -27 -31
-28 -35 -28 -147 0 -67 -4 -118 -10 -122 -6 -4 -10 42 -10 130 l0 137 30 30
c47 47 38 114 -21 153 -28 19 -29 22 -28 100 l1 79 83 82 c56 56 86 79 95 74
16 -10 59 -3 77 12 18 15 16 63 -3 82 -21 22 -67 20 -87 -2z m57 -8 c20 -8 21
-50 1 -58 -36 -14 -61 24 -33 52 14 14 12 14 32 6z m192 -152 c32 -26 35 -48
13 -76 -23 -30 -54 -33 -81 -9 -37 33 -11 96 42 102 3 0 14 -7 26 -17z m-276
-102 c0 -23 -39 -38 -51 -19 -13 20 -11 47 4 52 19 7 47 -12 47 -33z m-128
-217 c10 -9 18 -24 18 -34 0 -23 -27 -49 -51 -49 -20 0 -59 33 -59 50 0 16 38
50 57 50 9 0 25 -7 35 -17z m446 -106 c22 -26 2 -67 -32 -67 -26 0 -46 17 -46
40 0 36 55 55 78 27z m-68 -272 c10 -12 10 -18 0 -30 -17 -20 -37 -19 -48 3
-19 37 21 60 48 27z m-96 -108 c9 -15 7 -21 -8 -32 -21 -16 -56 -4 -52 17 6
40 39 49 60 15z m-81 -99 c7 -20 -12 -48 -33 -48 -19 0 -36 32 -25 50 9 14 52
12 58 -2z m-394 -354 c-15 -19 -53 -11 -58 11 -2 10 5 25 15 32 17 12 21 11
37 -8 13 -16 15 -25 6 -35z m172 -17 c-10 -27 -40 -29 -55 -4 -9 15 -7 21 8
32 28 21 58 3 47 -28z m-427 -15 c3 -5 -1 -9 -9 -9 -8 0 -12 4 -9 9 3 4 7 8 9
8 2 0 6 -4 9 -8z m6 -38 c0 -8 -19 -13 -24 -6 -3 5 1 9 9 9 8 0 15 -2 15 -3z"/>
<path d="M1365 3720 c-78 -30 -77 -151 3 -181 12 -5 22 -16 22 -25 0 -9 37
-54 83 -100 l82 -84 65 0 65 0 70 -70 69 -70 1 -65 1 -65 -106 0 -106 0 -57
58 c-54 55 -56 59 -47 90 6 23 5 42 -3 60 -12 26 -47 68 -47 56 0 -4 -7 -1
-15 6 -22 18 -77 4 -107 -28 -36 -38 -34 -100 4 -141 24 -25 33 -28 73 -25 45
4 48 3 113 -61 l67 -65 100 0 101 0 72 -73 72 -72 0 -86 0 -85 60 -59 c33 -33
60 -62 60 -65 0 -3 -24 -6 -54 -5 l-54 0 -85 85 c-47 46 -83 88 -80 93 2 4 6
24 8 43 2 27 -4 42 -27 66 -26 28 -32 30 -79 26 -55 -6 -74 -23 -85 -74 -7
-39 17 -90 48 -100 32 -11 70 -12 89 -3 12 6 30 -6 72 -49 127 -132 117 -126
213 -127 l86 -2 128 -128 128 -129 0 -645 1 -646 -86 -81 c-85 -80 -86 -81
-86 -130 0 -27 -5 -52 -11 -56 -7 -5 -11 -60 -12 -163 l-2 -155 45 0 44 0 -4
158 c-2 86 -7 174 -11 194 -6 36 -4 39 82 125 l88 88 -1 667 0 667 -28 29
c-26 27 -27 31 -27 151 l0 123 -47 48 c-35 36 -48 57 -49 81 -3 51 -57 77 -96
47 -46 -37 -15 -110 43 -103 26 4 39 -3 77 -41 l47 -45 2 -106 1 -106 -174
174 -174 174 0 84 c0 82 -1 86 -32 118 l-31 32 -1 162 0 161 -98 99 c-83 84
-98 104 -98 132 -1 56 -31 77 -81 57 -32 -14 -39 -33 -26 -72 9 -29 19 -35 57
-34 19 1 50 -24 123 -97 l98 -99 1 -134 c1 -74 -2 -137 -6 -141 -3 -3 -6 50
-6 118 l0 124 -95 95 c-93 92 -95 94 -145 96 -72 4 -98 28 -65 60 21 21 19 50
-5 74 -39 39 -100 13 -96 -40 2 -23 15 -42 56 -77 46 -41 59 -47 103 -50 49
-2 54 -5 136 -87 l86 -86 -1 -90 c0 -49 -3 -93 -7 -96 -4 -4 -7 35 -7 87 l0
94 -78 78 -77 77 -64 0 -64 0 -78 78 c-42 43 -74 83 -71 89 4 6 17 13 29 17
29 9 55 66 47 104 -11 57 -76 92 -129 72z m67 -45 c28 -17 32 -57 8 -83 -26
-28 -51 -28 -76 1 -24 27 -24 49 -1 75 19 21 42 23 69 7z m126 -144 c21 -13
10 -46 -16 -49 -24 -4 -38 18 -28 43 6 17 24 19 44 6z m147 -12 c8 -25 -6 -42
-31 -37 -12 2 -20 13 -22 31 -3 23 0 27 22 27 16 0 27 -7 31 -21z m-267 -245
c23 -16 31 -67 12 -79 -40 -25 -90 -2 -90 41 0 19 32 54 50 54 3 0 16 -7 28
-16z m313 -460 c1 -8 2 -20 3 -26 7 -43 -50 -70 -90 -43 -56 36 -7 115 58 93
15 -6 29 -16 29 -24z m476 -66 c12 -20 12 -36 0 -46 -15 -11 -47 -12 -48 0 -1
4 -2 14 -3 21 -3 16 14 37 30 37 7 0 16 -6 21 -12z"/>
<path d="M3573 3601 c-11 -9 -28 -28 -38 -43 -17 -27 -17 -28 9 -39 19 -9 32
-9 58 2 37 14 68 45 68 66 0 7 0 16 0 20 0 15 -78 10 -97 -6z m17 -35 c0 -3
-4 -8 -10 -11 -5 -3 -10 -1 -10 4 0 6 5 11 10 11 6 0 10 -2 10 -4z"/>
<path d="M1417 3050 c-9 -6 -15 -15 -12 -21 3 -5 0 -6 -8 -3 -8 3 -21 -6 -31
-20 -20 -32 -20 -40 0 -32 8 3 12 2 9 -4 -8 -14 58 -13 88 1 22 10 64 66 55
74 -10 11 -85 14 -101 5z"/>
<path d="M1984 3032 c-29 -18 -23 -122 6 -122 6 0 9 4 6 9 -3 5 1 11 9 15 18
7 20 65 3 89 -7 9 -18 13 -24 9z"/>
<path d="M3344 2865 c4 -12 2 -13 -15 -2 -16 10 -21 9 -29 -3 -5 -8 -8 -19 -7
-25 5 -13 97 -47 97 -36 0 5 9 7 20 4 11 -3 20 0 20 6 0 6 3 10 8 10 20 -3 22
3 6 19 -10 9 -20 15 -22 14 -3 -2 -8 0 -11 6 -3 5 -21 12 -40 15 -27 6 -32 4
-27 -8z"/>
<path d="M3143 2417 c-29 -15 -29 -23 0 -30 43 -11 124 10 106 27 -11 12 -86
13 -106 3z"/>
<path d="M2105 2353 c-51 -28 -58 -40 -33 -57 11 -8 25 -13 30 -10 5 3 7 0 6
-8 -5 -25 81 -18 113 9 27 23 28 25 11 42 -19 19 -66 41 -85 41 -7 -1 -25 -8
-42 -17z m82 -58 c0 -8 -4 -12 -9 -9 -5 3 -6 10 -3 15 9 13 12 11 12 -6z"/>
</g>
</svg>
